<mxfile host="app.diagrams.net" modified="2024-06-02T22:10:43.527Z" agent="Mozilla/5.0 (Windows NT 10.0; Win64; x64) AppleWebKit/537.36 (KHTML, like Gecko) Chrome/125.0.0.0 Safari/537.36" etag="ToQK0B88t7D04oIoj0X0" version="24.4.13" type="device">
  <diagram name="Activity Diagram" id="6jrK5nUL4PE33Jpxvxz4">
    <mxGraphModel dx="1323" dy="743" grid="1" gridSize="10" guides="1" tooltips="1" connect="1" arrows="1" fold="1" page="1" pageScale="1" pageWidth="1169" pageHeight="827" math="0" shadow="0">
      <root>
        <mxCell id="0" />
        <mxCell id="1" parent="0" />
        <mxCell id="1OORsaugnGma1jT3ZX8f-38" value="&lt;font style=&quot;font-size: 24px;&quot;&gt;guest&lt;/font&gt;" style="text;html=1;align=center;verticalAlign=middle;resizable=0;points=[];autosize=1;strokeColor=none;fillColor=none;" vertex="1" parent="1">
          <mxGeometry x="100" y="3" width="80" height="40" as="geometry" />
        </mxCell>
        <mxCell id="1OORsaugnGma1jT3ZX8f-39" value="&lt;font style=&quot;font-size: 24px;&quot;&gt;system&lt;/font&gt;" style="text;html=1;align=center;verticalAlign=middle;resizable=0;points=[];autosize=1;strokeColor=none;fillColor=none;" vertex="1" parent="1">
          <mxGeometry x="400" y="3" width="100" height="40" as="geometry" />
        </mxCell>
        <mxCell id="1OORsaugnGma1jT3ZX8f-40" value="&lt;font style=&quot;font-size: 24px;&quot;&gt;owner&lt;/font&gt;" style="text;html=1;align=center;verticalAlign=middle;resizable=0;points=[];autosize=1;strokeColor=none;fillColor=none;" vertex="1" parent="1">
          <mxGeometry x="890" width="90" height="40" as="geometry" />
        </mxCell>
        <mxCell id="1OORsaugnGma1jT3ZX8f-41" value="" style="endArrow=none;html=1;rounded=0;" edge="1" parent="1">
          <mxGeometry width="50" height="50" relative="1" as="geometry">
            <mxPoint x="310" y="821.0256723257212" as="sourcePoint" />
            <mxPoint x="310" as="targetPoint" />
          </mxGeometry>
        </mxCell>
        <mxCell id="1OORsaugnGma1jT3ZX8f-42" value="" style="endArrow=none;html=1;rounded=0;" edge="1" parent="1">
          <mxGeometry width="50" height="50" relative="1" as="geometry">
            <mxPoint x="830" y="824.0256723257212" as="sourcePoint" />
            <mxPoint x="830" y="3" as="targetPoint" />
          </mxGeometry>
        </mxCell>
        <mxCell id="1OORsaugnGma1jT3ZX8f-43" value="" style="ellipse;whiteSpace=wrap;html=1;aspect=fixed;fillColor=#000000;" vertex="1" parent="1">
          <mxGeometry x="125" y="60" width="30" height="30" as="geometry" />
        </mxCell>
        <mxCell id="1OORsaugnGma1jT3ZX8f-44" value="" style="endArrow=classic;html=1;rounded=0;exitX=0.5;exitY=1;exitDx=0;exitDy=0;" edge="1" parent="1" source="1OORsaugnGma1jT3ZX8f-43" target="1OORsaugnGma1jT3ZX8f-45">
          <mxGeometry width="50" height="50" relative="1" as="geometry">
            <mxPoint x="260" y="240" as="sourcePoint" />
            <mxPoint x="140" y="120" as="targetPoint" />
          </mxGeometry>
        </mxCell>
        <mxCell id="1OORsaugnGma1jT3ZX8f-46" value="" style="endArrow=classic;html=1;rounded=0;exitX=0.5;exitY=1;exitDx=0;exitDy=0;" edge="1" parent="1" source="1OORsaugnGma1jT3ZX8f-45">
          <mxGeometry width="50" height="50" relative="1" as="geometry">
            <mxPoint x="150" y="100" as="sourcePoint" />
            <mxPoint x="150" y="120" as="targetPoint" />
          </mxGeometry>
        </mxCell>
        <mxCell id="1OORsaugnGma1jT3ZX8f-48" value="" style="endArrow=classic;html=1;rounded=0;exitX=0.5;exitY=1;exitDx=0;exitDy=0;" edge="1" parent="1">
          <mxGeometry width="50" height="50" relative="1" as="geometry">
            <mxPoint x="142.86" y="140" as="sourcePoint" />
            <mxPoint x="143" y="160" as="targetPoint" />
          </mxGeometry>
        </mxCell>
        <mxCell id="1OORsaugnGma1jT3ZX8f-45" value="&lt;font style=&quot;font-size: 10px;&quot;&gt;opening forum for location&lt;/font&gt;" style="rounded=1;whiteSpace=wrap;html=1;" vertex="1" parent="1">
          <mxGeometry x="100" y="110" width="80" height="30" as="geometry" />
        </mxCell>
        <mxCell id="1OORsaugnGma1jT3ZX8f-49" value="does owner have accommodation on that location" style="shape=hexagon;perimeter=hexagonPerimeter2;whiteSpace=wrap;html=1;fixedSize=1;" vertex="1" parent="1">
          <mxGeometry x="80" y="160" width="120" height="40" as="geometry" />
        </mxCell>
        <mxCell id="1OORsaugnGma1jT3ZX8f-50" value="" style="endArrow=classic;html=1;rounded=0;entryX=0.5;entryY=0;entryDx=0;entryDy=0;" edge="1" parent="1" target="1OORsaugnGma1jT3ZX8f-54">
          <mxGeometry width="50" height="50" relative="1" as="geometry">
            <mxPoint x="200" y="180" as="sourcePoint" />
            <mxPoint x="230" y="470.4762050083705" as="targetPoint" />
            <Array as="points">
              <mxPoint x="230" y="180" />
              <mxPoint x="230" y="245" />
            </Array>
          </mxGeometry>
        </mxCell>
        <mxCell id="1OORsaugnGma1jT3ZX8f-51" value="yes" style="text;html=1;align=center;verticalAlign=middle;resizable=0;points=[];autosize=1;strokeColor=none;fillColor=none;" vertex="1" parent="1">
          <mxGeometry x="190" y="150" width="40" height="30" as="geometry" />
        </mxCell>
        <mxCell id="1OORsaugnGma1jT3ZX8f-52" value="no" style="text;html=1;align=center;verticalAlign=middle;resizable=0;points=[];autosize=1;strokeColor=none;fillColor=none;" vertex="1" parent="1">
          <mxGeometry x="40" y="150" width="40" height="30" as="geometry" />
        </mxCell>
        <mxCell id="1OORsaugnGma1jT3ZX8f-54" value="&lt;font style=&quot;font-size: 10px;&quot;&gt;sending&amp;nbsp; &amp;nbsp; &amp;nbsp;&lt;/font&gt;&lt;div&gt;&lt;font style=&quot;font-size: 10px;&quot;&gt;notification&amp;nbsp; &amp;nbsp;&amp;nbsp;&lt;/font&gt;&lt;/div&gt;" style="shape=offPageConnector;whiteSpace=wrap;html=1;direction=north;" vertex="1" parent="1">
          <mxGeometry x="370" y="230" width="90" height="30" as="geometry" />
        </mxCell>
        <mxCell id="1OORsaugnGma1jT3ZX8f-56" value="" style="endArrow=classic;html=1;rounded=0;exitX=0;exitY=0.444;exitDx=0;exitDy=0;exitPerimeter=0;" edge="1" parent="1" source="1OORsaugnGma1jT3ZX8f-54">
          <mxGeometry width="50" height="50" relative="1" as="geometry">
            <mxPoint x="410.8333206176758" y="300" as="sourcePoint" />
            <mxPoint x="120" y="360" as="targetPoint" />
            <Array as="points">
              <mxPoint x="410" y="300" />
              <mxPoint x="120" y="300" />
            </Array>
          </mxGeometry>
        </mxCell>
        <mxCell id="1OORsaugnGma1jT3ZX8f-57" value="getting notification" style="shape=mxgraph.sysml.accEvent;flipH=1;whiteSpace=wrap;align=center;html=1;" vertex="1" parent="1">
          <mxGeometry x="910" y="340" width="140" height="40" as="geometry" />
        </mxCell>
        <mxCell id="1OORsaugnGma1jT3ZX8f-59" value="" style="endArrow=classic;html=1;rounded=0;exitX=0.98;exitY=1.144;exitDx=0;exitDy=0;exitPerimeter=0;" edge="1" parent="1" source="1OORsaugnGma1jT3ZX8f-52">
          <mxGeometry width="50" height="50" relative="1" as="geometry">
            <mxPoint x="-20" y="410" as="sourcePoint" />
            <mxPoint x="40" y="710" as="targetPoint" />
            <Array as="points">
              <mxPoint x="40" y="184" />
            </Array>
          </mxGeometry>
        </mxCell>
        <mxCell id="1OORsaugnGma1jT3ZX8f-64" value="commenting on&amp;nbsp;&lt;div&gt;forum&lt;/div&gt;" style="rounded=1;whiteSpace=wrap;html=1;" vertex="1" parent="1">
          <mxGeometry x="55" y="560" width="120" height="60" as="geometry" />
        </mxCell>
        <mxCell id="1OORsaugnGma1jT3ZX8f-65" value="" style="endArrow=classic;startArrow=classic;html=1;rounded=0;exitX=0.25;exitY=0;exitDx=0;exitDy=0;" edge="1" parent="1" source="1OORsaugnGma1jT3ZX8f-64">
          <mxGeometry width="50" height="50" relative="1" as="geometry">
            <mxPoint x="860" y="410" as="sourcePoint" />
            <mxPoint x="910" y="360" as="targetPoint" />
            <Array as="points">
              <mxPoint x="85" y="360" />
            </Array>
          </mxGeometry>
        </mxCell>
        <mxCell id="1OORsaugnGma1jT3ZX8f-66" value="" style="endArrow=classic;html=1;rounded=0;exitX=1;exitY=0.5;exitDx=0;exitDy=0;" edge="1" parent="1" source="1OORsaugnGma1jT3ZX8f-64" target="1OORsaugnGma1jT3ZX8f-67">
          <mxGeometry width="50" height="50" relative="1" as="geometry">
            <mxPoint x="140" y="690" as="sourcePoint" />
            <mxPoint x="440" y="590" as="targetPoint" />
          </mxGeometry>
        </mxCell>
        <mxCell id="1OORsaugnGma1jT3ZX8f-67" value="saving somment" style="rounded=1;whiteSpace=wrap;html=1;" vertex="1" parent="1">
          <mxGeometry x="380" y="560" width="120" height="50" as="geometry" />
        </mxCell>
        <mxCell id="1OORsaugnGma1jT3ZX8f-68" value="" style="endArrow=classic;html=1;rounded=0;exitX=0.5;exitY=1;exitDx=0;exitDy=0;" edge="1" parent="1" source="1OORsaugnGma1jT3ZX8f-67">
          <mxGeometry width="50" height="50" relative="1" as="geometry">
            <mxPoint x="470" y="780" as="sourcePoint" />
            <mxPoint x="440" y="720" as="targetPoint" />
          </mxGeometry>
        </mxCell>
        <mxCell id="1OORsaugnGma1jT3ZX8f-69" value="" style="group" vertex="1" connectable="0" parent="1">
          <mxGeometry x="20" y="710" width="40" height="40" as="geometry" />
        </mxCell>
        <mxCell id="1OORsaugnGma1jT3ZX8f-61" value="" style="ellipse;whiteSpace=wrap;html=1;aspect=fixed;" vertex="1" parent="1OORsaugnGma1jT3ZX8f-69">
          <mxGeometry width="40" height="40" as="geometry" />
        </mxCell>
        <mxCell id="1OORsaugnGma1jT3ZX8f-63" value="" style="ellipse;whiteSpace=wrap;html=1;aspect=fixed;fillColor=#000000;" vertex="1" parent="1OORsaugnGma1jT3ZX8f-69">
          <mxGeometry x="5" y="5" width="30" height="30" as="geometry" />
        </mxCell>
        <mxCell id="1OORsaugnGma1jT3ZX8f-70" value="" style="group" vertex="1" connectable="0" parent="1">
          <mxGeometry x="420" y="720" width="40" height="40" as="geometry" />
        </mxCell>
        <mxCell id="1OORsaugnGma1jT3ZX8f-71" value="" style="ellipse;whiteSpace=wrap;html=1;aspect=fixed;" vertex="1" parent="1OORsaugnGma1jT3ZX8f-70">
          <mxGeometry width="40" height="40" as="geometry" />
        </mxCell>
        <mxCell id="1OORsaugnGma1jT3ZX8f-72" value="" style="ellipse;whiteSpace=wrap;html=1;aspect=fixed;fillColor=#000000;" vertex="1" parent="1OORsaugnGma1jT3ZX8f-70">
          <mxGeometry x="5" y="5" width="30" height="30" as="geometry" />
        </mxCell>
        <mxCell id="1OORsaugnGma1jT3ZX8f-73" value="" style="endArrow=classic;html=1;rounded=0;exitX=0.5;exitY=1;exitDx=0;exitDy=0;exitPerimeter=0;" edge="1" parent="1" source="1OORsaugnGma1jT3ZX8f-57">
          <mxGeometry width="50" height="50" relative="1" as="geometry">
            <mxPoint x="990" y="540" as="sourcePoint" />
            <mxPoint x="980" y="470" as="targetPoint" />
          </mxGeometry>
        </mxCell>
        <mxCell id="1OORsaugnGma1jT3ZX8f-74" value="commenting on&amp;nbsp;&lt;div&gt;forum&lt;/div&gt;" style="rounded=1;whiteSpace=wrap;html=1;" vertex="1" parent="1">
          <mxGeometry x="930" y="470" width="120" height="60" as="geometry" />
        </mxCell>
        <mxCell id="1OORsaugnGma1jT3ZX8f-75" value="" style="endArrow=classic;html=1;rounded=0;exitX=0;exitY=0.5;exitDx=0;exitDy=0;" edge="1" parent="1" source="1OORsaugnGma1jT3ZX8f-74">
          <mxGeometry width="50" height="50" relative="1" as="geometry">
            <mxPoint x="950" y="690" as="sourcePoint" />
            <mxPoint x="670" y="560" as="targetPoint" />
            <Array as="points">
              <mxPoint x="670" y="500" />
            </Array>
          </mxGeometry>
        </mxCell>
        <mxCell id="1OORsaugnGma1jT3ZX8f-76" value="saving somment" style="rounded=1;whiteSpace=wrap;html=1;" vertex="1" parent="1">
          <mxGeometry x="620" y="560" width="120" height="50" as="geometry" />
        </mxCell>
        <mxCell id="1OORsaugnGma1jT3ZX8f-78" value="is forum very useful" style="shape=hexagon;perimeter=hexagonPerimeter2;whiteSpace=wrap;html=1;fixedSize=1;" vertex="1" parent="1">
          <mxGeometry x="610" y="660" width="120" height="30" as="geometry" />
        </mxCell>
        <mxCell id="1OORsaugnGma1jT3ZX8f-79" value="" style="endArrow=classic;html=1;rounded=0;entryX=0.541;entryY=-0.038;entryDx=0;entryDy=0;entryPerimeter=0;exitX=0.451;exitY=1.024;exitDx=0;exitDy=0;exitPerimeter=0;" edge="1" parent="1" source="1OORsaugnGma1jT3ZX8f-76" target="1OORsaugnGma1jT3ZX8f-78">
          <mxGeometry width="50" height="50" relative="1" as="geometry">
            <mxPoint x="680" y="620" as="sourcePoint" />
            <mxPoint x="730" y="570" as="targetPoint" />
          </mxGeometry>
        </mxCell>
        <mxCell id="1OORsaugnGma1jT3ZX8f-80" value="" style="endArrow=classic;html=1;rounded=0;exitX=1;exitY=0.5;exitDx=0;exitDy=0;" edge="1" parent="1" source="1OORsaugnGma1jT3ZX8f-78">
          <mxGeometry width="50" height="50" relative="1" as="geometry">
            <mxPoint x="730" y="680" as="sourcePoint" />
            <mxPoint x="770" y="740" as="targetPoint" />
            <Array as="points">
              <mxPoint x="770" y="675" />
            </Array>
          </mxGeometry>
        </mxCell>
        <mxCell id="1OORsaugnGma1jT3ZX8f-81" value="no" style="text;html=1;align=center;verticalAlign=middle;resizable=0;points=[];autosize=1;strokeColor=none;fillColor=none;" vertex="1" parent="1">
          <mxGeometry x="730" y="640" width="40" height="30" as="geometry" />
        </mxCell>
        <mxCell id="1OORsaugnGma1jT3ZX8f-82" value="" style="group" vertex="1" connectable="0" parent="1">
          <mxGeometry x="750" y="740" width="40" height="40" as="geometry" />
        </mxCell>
        <mxCell id="1OORsaugnGma1jT3ZX8f-83" value="" style="ellipse;whiteSpace=wrap;html=1;aspect=fixed;" vertex="1" parent="1OORsaugnGma1jT3ZX8f-82">
          <mxGeometry width="40" height="40" as="geometry" />
        </mxCell>
        <mxCell id="1OORsaugnGma1jT3ZX8f-84" value="" style="ellipse;whiteSpace=wrap;html=1;aspect=fixed;fillColor=#000000;" vertex="1" parent="1OORsaugnGma1jT3ZX8f-82">
          <mxGeometry x="5" y="5" width="30" height="30" as="geometry" />
        </mxCell>
        <mxCell id="1OORsaugnGma1jT3ZX8f-85" value="" style="endArrow=classic;html=1;rounded=0;exitX=0;exitY=0.5;exitDx=0;exitDy=0;" edge="1" parent="1" source="1OORsaugnGma1jT3ZX8f-78">
          <mxGeometry width="50" height="50" relative="1" as="geometry">
            <mxPoint x="590" y="690.8100000000002" as="sourcePoint" />
            <mxPoint x="590.24" y="720" as="targetPoint" />
            <Array as="points">
              <mxPoint x="590" y="675" />
            </Array>
          </mxGeometry>
        </mxCell>
        <mxCell id="1OORsaugnGma1jT3ZX8f-86" value="yes" style="text;html=1;align=center;verticalAlign=middle;resizable=0;points=[];autosize=1;strokeColor=none;fillColor=none;" vertex="1" parent="1">
          <mxGeometry x="570" y="648" width="40" height="30" as="geometry" />
        </mxCell>
        <mxCell id="1OORsaugnGma1jT3ZX8f-87" value="&lt;font style=&quot;font-size: 8px;&quot;&gt;marking forum as very useful/ changing status&lt;/font&gt;" style="rounded=1;whiteSpace=wrap;html=1;" vertex="1" parent="1">
          <mxGeometry x="550" y="720" width="80" height="40" as="geometry" />
        </mxCell>
        <mxCell id="1OORsaugnGma1jT3ZX8f-88" value="" style="endArrow=classic;html=1;rounded=0;exitX=0.463;exitY=1.046;exitDx=0;exitDy=0;exitPerimeter=0;" edge="1" parent="1" source="1OORsaugnGma1jT3ZX8f-87">
          <mxGeometry width="50" height="50" relative="1" as="geometry">
            <mxPoint x="610" y="820" as="sourcePoint" />
            <mxPoint x="590" y="790" as="targetPoint" />
          </mxGeometry>
        </mxCell>
        <mxCell id="1OORsaugnGma1jT3ZX8f-89" value="" style="group" vertex="1" connectable="0" parent="1">
          <mxGeometry x="584" y="790" width="20" height="20" as="geometry" />
        </mxCell>
        <mxCell id="1OORsaugnGma1jT3ZX8f-90" value="" style="ellipse;whiteSpace=wrap;html=1;aspect=fixed;" vertex="1" parent="1OORsaugnGma1jT3ZX8f-89">
          <mxGeometry width="20" height="20" as="geometry" />
        </mxCell>
        <mxCell id="1OORsaugnGma1jT3ZX8f-91" value="" style="ellipse;whiteSpace=wrap;html=1;aspect=fixed;fillColor=#000000;" vertex="1" parent="1OORsaugnGma1jT3ZX8f-89">
          <mxGeometry x="2.5" y="2.5" width="15" height="15" as="geometry" />
        </mxCell>
      </root>
    </mxGraphModel>
  </diagram>
</mxfile>
